<?xml version="1.0" encoding="UTF-8" standalone="no"?><!DOCTYPE svg PUBLIC "-//W3C//DTD SVG 1.1//EN" "http://www.w3.org/Graphics/SVG/1.1/DTD/svg11.dtd"><svg width="100%" height="100%" viewBox="0 0 128 128" version="1.1" xmlns="http://www.w3.org/2000/svg" xmlns:xlink="http://www.w3.org/1999/xlink" xml:space="preserve" xmlns:serif="http://www.serif.com/" style="fill-rule:evenodd;clip-rule:evenodd;stroke-linecap:round;stroke-linejoin:round;stroke-miterlimit:1.5;"><g transform="matrix(0.102002,0,0,0.108162,-52.8083,-49.1744)"><rect x="517.717" y="454.638" width="1254.87" height="1183.41" style="fill:rgb(203,203,203);stroke:rgb(62,62,62);stroke-width:16.11px;"/></g><g transform="matrix(0.0701267,0,0,0.074361,-16.3057,-13.8074)"><rect x="517.717" y="454.638" width="1254.87" height="1183.41" style="fill:rgb(203,203,203);stroke:rgb(62,62,62);stroke-width:23.43px;"/></g><g transform="matrix(0.0510012,0,0,0.0540808,5.59583,7.41282)"><rect x="517.717" y="454.638" width="1254.87" height="1183.41" style="fill:rgb(203,203,203);stroke:rgb(62,62,62);stroke-width:32.21px;"/></g><g transform="matrix(0.0382509,0,0,0.0405606,20.1969,21.5596)"><rect x="517.717" y="454.638" width="1254.87" height="1183.41" style="fill:rgb(203,203,203);stroke:rgb(62,62,62);stroke-width:42.95px;"/></g><g transform="matrix(0.0318758,0,0,0.0338005,27.4974,28.633)"><rect x="517.717" y="454.638" width="1254.87" height="1183.41" style="fill:rgb(203,203,203);stroke:rgb(62,62,62);stroke-width:51.54px;"/></g><g transform="matrix(0.0255006,0,0,0.0270404,34.7979,35.7064)"><rect x="517.717" y="454.638" width="1254.87" height="1183.41" style="fill:rgb(203,203,203);stroke:rgb(62,62,62);stroke-width:64.43px;"/></g></svg>